<svg xmlns="http://www.w3.org/2000/svg" viewBox="0 0 640 360" role="img" aria-labelledby="title desc">
<title id="title">backend</title><desc id="desc">Visual learning infographic</desc><defs>
<linearGradient id="g" x1="0" y1="0" x2="1" y2="1"><stop stop-color="#7c3aed"/><stop offset="0.55" stop-color="#4f46e5"/><stop offset="1" stop-color="#06b6d4"/></linearGradient>
<linearGradient id="g2" x1="0" y1="1" x2="1" y2="0"><stop stop-color="#22c55e"/><stop offset="1" stop-color="#06b6d4"/></linearGradient>
<radialGradient id="glow"><stop stop-color="#8b5cf6" stop-opacity=".7"/><stop offset="1" stop-color="#8b5cf6" stop-opacity="0"/></radialGradient>
<filter id="blur"><feGaussianBlur stdDeviation="8"/></filter>
<filter id="shadow"><feDropShadow dx="0" dy="6" stdDeviation="6" flood-color="#020617" flood-opacity=".55"/></filter>
</defs>
<rect width="640" height="360" rx="36" fill="#080d1b"/>
<circle cx="499.20000000000005" cy="64.8" r="162.0" fill="url(#glow)" opacity=".35" filter="url(#blur)"/>

<rect x="54" y="100" width="142" height="160" rx="26" fill="#111a2e" stroke="#4f46e5"/><text x="125" y="148" text-anchor="middle" fill="#c4b5fd" font-family="system-ui" font-size="18" font-weight="800">APP</text><path d="M92 188h66M92 220h46" stroke="#6366f1" stroke-width="9" stroke-linecap="round"/>
<rect x="250" y="100" width="142" height="160" rx="26" fill="#111a2e" stroke="#06b6d4"/><text x="321" y="148" text-anchor="middle" fill="#67e8f9" font-family="system-ui" font-size="18" font-weight="800">API</text><text x="321" y="207" text-anchor="middle" fill="#f8fafc" font-family="monospace" font-size="28">{ }</text>
<rect x="446" y="100" width="142" height="160" rx="26" fill="#111a2e" stroke="#22c55e"/><ellipse cx="517" cy="150" rx="42" ry="18" fill="#14532d" stroke="#22c55e" stroke-width="5"/><path d="M475 150v66c0 10 19 18 42 18s42-8 42-18v-66" fill="#0f172a" stroke="#22c55e" stroke-width="5"/><text x="517" y="286" text-anchor="middle" fill="#86efac" font-family="system-ui" font-size="15">DATABASE</text>
<path d="M204 180h34M400 180h34" stroke="url(#g)" stroke-width="8" stroke-linecap="round"/>
</svg>