<svg xmlns="http://www.w3.org/2000/svg" viewBox="0 0 640 360" role="img" aria-labelledby="title desc">
<title id="title">deployment</title><desc id="desc">Visual learning infographic</desc><defs>
<linearGradient id="g" x1="0" y1="0" x2="1" y2="1"><stop stop-color="#7c3aed"/><stop offset="0.55" stop-color="#4f46e5"/><stop offset="1" stop-color="#06b6d4"/></linearGradient>
<linearGradient id="g2" x1="0" y1="1" x2="1" y2="0"><stop stop-color="#22c55e"/><stop offset="1" stop-color="#06b6d4"/></linearGradient>
<radialGradient id="glow"><stop stop-color="#8b5cf6" stop-opacity=".7"/><stop offset="1" stop-color="#8b5cf6" stop-opacity="0"/></radialGradient>
<filter id="blur"><feGaussianBlur stdDeviation="8"/></filter>
<filter id="shadow"><feDropShadow dx="0" dy="6" stdDeviation="6" flood-color="#020617" flood-opacity=".55"/></filter>
</defs>
<rect width="640" height="360" rx="36" fill="#080d1b"/>
<circle cx="499.20000000000005" cy="64.8" r="162.0" fill="url(#glow)" opacity=".35" filter="url(#blur)"/>

<path d="M126 226h388c42 0 70-24 70-58s-27-60-66-60c-18-48-58-72-110-60-30-38-98-32-120 20-54-4-92 30-92 76-42 2-72 30-70 82z" fill="#111a2e" stroke="url(#g)" stroke-width="6"/>
<rect x="238" y="128" width="164" height="92" rx="22" fill="#0b1222" stroke="#334155"/><text x="320" y="166" text-anchor="middle" fill="#a78bfa" font-family="system-ui" font-size="18" font-weight="800">DOCKER</text><text x="320" y="198" text-anchor="middle" fill="#f8fafc" font-family="monospace" font-size="22">APP + DEPS</text>
<circle cx="174" cy="176" r="24" fill="#22c55e"/><path d="m163 176 8 8 16-20" fill="none" stroke="#fff" stroke-width="6" stroke-linecap="round" stroke-linejoin="round"/>
<circle cx="470" cy="176" r="24" fill="#4f46e5"/><path d="M460 176h20M470 166v20" stroke="#fff" stroke-width="5" stroke-linecap="round"/>
</svg>