<svg xmlns="http://www.w3.org/2000/svg" viewBox="0 0 640 360" role="img" aria-labelledby="title desc">
<title id="title">frameworks</title><desc id="desc">Visual learning infographic</desc><defs>
<linearGradient id="g" x1="0" y1="0" x2="1" y2="1"><stop stop-color="#7c3aed"/><stop offset="0.55" stop-color="#4f46e5"/><stop offset="1" stop-color="#06b6d4"/></linearGradient>
<linearGradient id="g2" x1="0" y1="1" x2="1" y2="0"><stop stop-color="#22c55e"/><stop offset="1" stop-color="#06b6d4"/></linearGradient>
<radialGradient id="glow"><stop stop-color="#8b5cf6" stop-opacity=".7"/><stop offset="1" stop-color="#8b5cf6" stop-opacity="0"/></radialGradient>
<filter id="blur"><feGaussianBlur stdDeviation="8"/></filter>
<filter id="shadow"><feDropShadow dx="0" dy="6" stdDeviation="6" flood-color="#020617" flood-opacity=".55"/></filter>
</defs>
<rect width="640" height="360" rx="36" fill="#080d1b"/>
<circle cx="499.20000000000005" cy="64.8" r="162.0" fill="url(#glow)" opacity=".35" filter="url(#blur)"/>

<circle cx="320" cy="178" r="52" fill="url(#g)"/><text x="320" y="185" text-anchor="middle" fill="#fff" font-family="system-ui" font-size="20" font-weight="800">CORE</text>
<g fill="#111a2e" stroke-width="3" font-family="system-ui" font-weight="800" font-size="16"><rect x="64" y="74" width="166" height="68" rx="20" stroke="#4f46e5"/><text x="147" y="115" text-anchor="middle" fill="#c4b5fd">LangChain</text><rect x="410" y="74" width="166" height="68" rx="20" stroke="#06b6d4"/><text x="493" y="115" text-anchor="middle" fill="#67e8f9">LangGraph</text><rect x="64" y="234" width="166" height="68" rx="20" stroke="#22c55e"/><text x="147" y="275" text-anchor="middle" fill="#86efac">LlamaIndex</text><rect x="410" y="234" width="166" height="68" rx="20" stroke="#eab308"/><text x="493" y="275" text-anchor="middle" fill="#fde68a">CrewAI</text></g>
<g stroke="#334155" stroke-width="5"><path d="M274 150 230 122M366 150l44-28M274 206l-44 28M366 206l44 28"/></g>
</svg>