<svg xmlns="http://www.w3.org/2000/svg" viewBox="0 0 640 360" role="img" aria-labelledby="title desc">
<title id="title">libraries</title><desc id="desc">Visual learning infographic</desc><defs>
<linearGradient id="g" x1="0" y1="0" x2="1" y2="1"><stop stop-color="#7c3aed"/><stop offset="0.55" stop-color="#4f46e5"/><stop offset="1" stop-color="#06b6d4"/></linearGradient>
<linearGradient id="g2" x1="0" y1="1" x2="1" y2="0"><stop stop-color="#22c55e"/><stop offset="1" stop-color="#06b6d4"/></linearGradient>
<radialGradient id="glow"><stop stop-color="#8b5cf6" stop-opacity=".7"/><stop offset="1" stop-color="#8b5cf6" stop-opacity="0"/></radialGradient>
<filter id="blur"><feGaussianBlur stdDeviation="8"/></filter>
<filter id="shadow"><feDropShadow dx="0" dy="6" stdDeviation="6" flood-color="#020617" flood-opacity=".55"/></filter>
</defs>
<rect width="640" height="360" rx="36" fill="#080d1b"/>
<circle cx="499.20000000000005" cy="64.8" r="162.0" fill="url(#glow)" opacity=".35" filter="url(#blur)"/>

<path d="M78 272V88M78 272h490" stroke="#334155" stroke-width="6" stroke-linecap="round"/>
<rect x="120" y="210" width="58" height="62" rx="10" fill="#4f46e5"/><rect x="210" y="166" width="58" height="106" rx="10" fill="#7c3aed"/><rect x="300" y="118" width="58" height="154" rx="10" fill="#06b6d4"/><rect x="390" y="146" width="58" height="126" rx="10" fill="#22c55e"/>
<path d="M110 196c90-70 160-20 236-92 66-62 126-44 194-10" fill="none" stroke="#fbbf24" stroke-width="7" stroke-linecap="round"/>
<circle cx="110" cy="196" r="8" fill="#fbbf24"/><circle cx="346" cy="104" r="8" fill="#fbbf24"/><circle cx="540" cy="94" r="8" fill="#fbbf24"/>
</svg>