<svg xmlns="http://www.w3.org/2000/svg" viewBox="0 0 640 360" role="img" aria-labelledby="title desc">
<title id="title">projects</title><desc id="desc">Visual learning infographic</desc><defs>
<linearGradient id="g" x1="0" y1="0" x2="1" y2="1"><stop stop-color="#7c3aed"/><stop offset="0.55" stop-color="#4f46e5"/><stop offset="1" stop-color="#06b6d4"/></linearGradient>
<linearGradient id="g2" x1="0" y1="1" x2="1" y2="0"><stop stop-color="#22c55e"/><stop offset="1" stop-color="#06b6d4"/></linearGradient>
<radialGradient id="glow"><stop stop-color="#8b5cf6" stop-opacity=".7"/><stop offset="1" stop-color="#8b5cf6" stop-opacity="0"/></radialGradient>
<filter id="blur"><feGaussianBlur stdDeviation="8"/></filter>
<filter id="shadow"><feDropShadow dx="0" dy="6" stdDeviation="6" flood-color="#020617" flood-opacity=".55"/></filter>
</defs>
<rect width="640" height="360" rx="36" fill="#080d1b"/>
<circle cx="499.20000000000005" cy="64.8" r="162.0" fill="url(#glow)" opacity=".35" filter="url(#blur)"/>

<rect x="62" y="76" width="152" height="210" rx="26" fill="#111a2e" stroke="#4f46e5"/><rect x="244" y="76" width="152" height="210" rx="26" fill="#111a2e" stroke="#06b6d4"/><rect x="426" y="76" width="152" height="210" rx="26" fill="#111a2e" stroke="#22c55e"/>
<g font-family="system-ui" text-anchor="middle"><text x="138" y="128" fill="#c4b5fd" font-size="18" font-weight="800">CHATBOT</text><circle cx="138" cy="188" r="36" fill="#312e81"/><path d="M118 180h40M118 196h26" stroke="#ddd6fe" stroke-width="7" stroke-linecap="round"/><text x="320" y="128" fill="#67e8f9" font-size="18" font-weight="800">PDF RAG</text><rect x="286" y="154" width="68" height="82" rx="10" fill="#164e63"/><path d="M300 176h40M300 194h40M300 212h26" stroke="#cffafe" stroke-width="6" stroke-linecap="round"/><text x="502" y="128" fill="#86efac" font-size="18" font-weight="800">AGENT</text><circle cx="502" cy="188" r="36" fill="#14532d"/><circle cx="490" cy="184" r="5" fill="#dcfce7"/><circle cx="514" cy="184" r="5" fill="#dcfce7"/><path d="M488 204h28" stroke="#dcfce7" stroke-width="5" stroke-linecap="round"/></g>
</svg>