<svg xmlns="http://www.w3.org/2000/svg" viewBox="0 0 640 360" role="img" aria-labelledby="title desc">
<title id="title">rag</title><desc id="desc">Visual learning infographic</desc><defs>
<linearGradient id="g" x1="0" y1="0" x2="1" y2="1"><stop stop-color="#7c3aed"/><stop offset="0.55" stop-color="#4f46e5"/><stop offset="1" stop-color="#06b6d4"/></linearGradient>
<linearGradient id="g2" x1="0" y1="1" x2="1" y2="0"><stop stop-color="#22c55e"/><stop offset="1" stop-color="#06b6d4"/></linearGradient>
<radialGradient id="glow"><stop stop-color="#8b5cf6" stop-opacity=".7"/><stop offset="1" stop-color="#8b5cf6" stop-opacity="0"/></radialGradient>
<filter id="blur"><feGaussianBlur stdDeviation="8"/></filter>
<filter id="shadow"><feDropShadow dx="0" dy="6" stdDeviation="6" flood-color="#020617" flood-opacity=".55"/></filter>
</defs>
<rect width="640" height="360" rx="36" fill="#080d1b"/>
<circle cx="499.20000000000005" cy="64.8" r="162.0" fill="url(#glow)" opacity=".35" filter="url(#blur)"/>

<g font-family="system-ui" font-size="16" text-anchor="middle"><rect x="42" y="126" width="112" height="92" rx="20" fill="#111a2e" stroke="#4f46e5"/><text x="98" y="164" fill="#c4b5fd" font-weight="800">ВОПРОС</text><text x="98" y="191" fill="#94a3b8">query</text>
<rect x="202" y="86" width="122" height="172" rx="24" fill="#111a2e" stroke="#06b6d4"/><text x="263" y="128" fill="#67e8f9" font-weight="800">ПОИСК</text><circle cx="263" cy="180" r="34" fill="none" stroke="#06b6d4" stroke-width="8"/><path d="m286 204 28 28" stroke="#06b6d4" stroke-width="9" stroke-linecap="round"/>
<rect x="370" y="86" width="122" height="172" rx="24" fill="#111a2e" stroke="#22c55e"/><text x="431" y="128" fill="#86efac" font-weight="800">КОНТЕКСТ</text><path d="M400 164h62M400 192h62M400 220h44" stroke="#22c55e" stroke-width="8" stroke-linecap="round"/>
<rect x="536" y="126" width="70" height="92" rx="20" fill="url(#g)"/><text x="571" y="178" fill="#fff" font-weight="800">LLM</text></g>
<path d="M160 172h30M332 172h26M500 172h24" stroke="url(#g)" stroke-width="8" stroke-linecap="round"/>
</svg>