<svg xmlns="http://www.w3.org/2000/svg" viewBox="0 0 640 360" role="img" aria-labelledby="title desc">
<title id="title">timer-hourglass</title><desc id="desc">Visual learning infographic</desc><defs>
<linearGradient id="g" x1="0" y1="0" x2="1" y2="1"><stop stop-color="#7c3aed"/><stop offset="0.55" stop-color="#4f46e5"/><stop offset="1" stop-color="#06b6d4"/></linearGradient>
<linearGradient id="g2" x1="0" y1="1" x2="1" y2="0"><stop stop-color="#22c55e"/><stop offset="1" stop-color="#06b6d4"/></linearGradient>
<radialGradient id="glow"><stop stop-color="#8b5cf6" stop-opacity=".7"/><stop offset="1" stop-color="#8b5cf6" stop-opacity="0"/></radialGradient>
<filter id="blur"><feGaussianBlur stdDeviation="8"/></filter>
<filter id="shadow"><feDropShadow dx="0" dy="6" stdDeviation="6" flood-color="#020617" flood-opacity=".55"/></filter>
</defs>
<rect width="640" height="360" rx="36" fill="#080d1b"/>
<circle cx="499.20000000000005" cy="64.8" r="162.0" fill="url(#glow)" opacity=".35" filter="url(#blur)"/>

<path d="M210 72h180M210 286h180" stroke="#8b5cf6" stroke-width="18" stroke-linecap="round"/>
<path d="M242 82c0 58 42 72 58 100-16 28-58 42-58 94h116c0-52-42-66-58-94 16-28 58-42 58-100z" fill="#111a2e" stroke="url(#g)" stroke-width="6"/>
<path d="M270 110c18 30 50 36 58 72-8 36-40 42-58 70h60c-16-22-35-35-30-70-5-35 14-48 30-72z" fill="url(#g)" opacity=".85"/>
<circle cx="300" cy="182" r="5" fill="#e9d5ff"/>
<path d="M432 122h120M432 162h88M432 202h120M432 242h72" stroke="#24324d" stroke-width="10" stroke-linecap="round"/>
<path d="M432 122h76M432 162h52M432 202h96M432 242h44" stroke="url(#g)" stroke-width="6" stroke-linecap="round"/>
</svg>